<svg width="24" height="24" viewBox="0 0 24 24" fill="none" xmlns="http://www.w3.org/2000/svg">
<path d="M20.3663 15.82V8.06163C20.366 7.7215 20.2762 7.38744 20.106 7.09296C19.9358 6.79848 19.6911 6.55394 19.3965 6.38388L12.6079 2.50467C12.3131 2.33443 11.9786 2.24481 11.6381 2.24481C11.2977 2.24481 10.9632 2.33443 10.6683 2.50467L3.87971 6.38388C3.58515 6.55394 3.34048 6.79848 3.17027 7.09296C3.00005 7.38744 2.91026 7.7215 2.90991 8.06163V15.82C2.91026 16.1602 3.00005 16.4942 3.17027 16.7887C3.34048 17.0832 3.58515 17.3277 3.87971 17.4978L10.6683 21.377C10.9632 21.5472 11.2977 21.6369 11.6381 21.6369C11.9786 21.6369 12.3131 21.5472 12.6079 21.377L19.3965 17.4978C19.6911 17.3277 19.9358 17.0832 20.106 16.7887C20.2762 16.4942 20.366 16.1602 20.3663 15.82Z" stroke="white" stroke-width="1.9396" stroke-linecap="round" stroke-linejoin="round"/>
<path d="M3.1709 7.05334L11.6373 11.9508L20.1036 7.05334" stroke="white" stroke-width="1.9396" stroke-linecap="round" stroke-linejoin="round"/>
<path d="M11.6382 21.7164V11.9408" stroke="white" stroke-width="1.9396" stroke-linecap="round" stroke-linejoin="round"/>
</svg>
