<svg width="145" height="98" viewBox="0 0 145 98" fill="none" xmlns="http://www.w3.org/2000/svg">
<path d="M76.7568 69.0147C83.0001 60.9332 82.8025 49.324 76.2549 40.8778L73.0707 36.7704L82.7154 29.8494C99.4264 17.8209 117.274 9.17132 134.646 4.68826C140.101 3.23838 144.662 1.83219 144.701 1.52404C144.787 0.439035 140.639 0.227745 135.365 1.07432C117.438 3.76518 93.91 14.4101 75.7897 28.0868L67.4241 34.3867L63.444 33.6748C49.3916 31.3243 34.1188 39.8298 21.6047 57.033C16.8603 63.5821 11.0827 73.3401 5.2125 84.6519C0.708163 93.4229 -0.330791 96.2659 0.476455 97.3072C1.23885 98.2906 4.09069 94.3201 11.1054 82.2138C27.8332 53.5938 39.1174 41.975 53.1918 39.2145C57.0012 38.3916 62.363 38.4954 63.0357 39.3632C63.2151 39.5946 62.7897 40.4801 62.0431 41.4293C61.3095 42.2758 59.4155 45.6891 57.8108 48.878C54.6985 54.9028 53.3454 61.0457 54.1785 65.5864C54.8206 69.1637 58.1842 73.5025 61.2194 74.669C66.0386 76.5827 72.7662 74.1458 76.7568 69.0147ZM65.223 69.4352C62.911 69.5603 60.809 67.2074 60.1538 63.7327C59.2122 58.813 63.0381 48.8083 67.9864 43.1199C69.1381 41.8566 69.562 41.8058 70.8959 42.8094C74.9742 46.0384 76.6664 54.9144 74.4207 61.101C72.936 65.4009 68.6331 69.2923 65.223 69.4352Z" fill="#064420"/>
</svg>
