<svg width="351" height="237" viewBox="0 0 351 237" fill="none" xmlns="http://www.w3.org/2000/svg">
<rect x="0.800049" y="0.567993" width="349" height="235" rx="7.5" fill="white"/>
<rect x="0.800049" y="0.567993" width="349" height="235" rx="7.5" stroke="#DEE1E6"/>
<path d="M74.3 142.012L110.586 152.083L146.871 146.209L183.157 103.406L219.443 140.334L255.729 131.102L292.014 151.244L328.3 150.405" stroke="#6D31ED" stroke-width="2"/>
<path d="M74.3 169.468L110.586 123.012L146.871 164.446L183.157 129.29L219.443 163.19L255.729 161.935L292.014 94.1347L328.3 192.068" stroke="#D3C1FA" stroke-width="2"/>
<path d="M15.0048 31.068L15.0048 22.9589H18.2041C18.8192 22.9589 19.3432 23.0764 19.7761 23.3113C20.209 23.5436 20.5389 23.867 20.7659 24.2814C20.9956 24.6932 21.1104 25.1683 21.1104 25.7068C21.1104 26.2453 20.9943 26.7204 20.762 27.1322C20.5297 27.544 20.1931 27.8647 19.7523 28.0944C19.3141 28.324 18.7835 28.4389 18.1606 28.4389H16.1214V27.0649H17.8834C18.2134 27.0649 18.4853 27.0082 18.6991 26.8947C18.9155 26.7785 19.0765 26.6188 19.1821 26.4156C19.2904 26.2097 19.3445 25.9734 19.3445 25.7068C19.3445 25.4376 19.2904 25.2026 19.1821 25.002C19.0765 24.7988 18.9155 24.6417 18.6991 24.5308C18.4826 24.4173 18.2081 24.3606 17.8755 24.3606H16.7193V31.068H15.0048ZM22.224 31.068V22.9589L25.4233 22.9589C26.0357 22.9589 26.5584 23.0684 26.9913 23.2875C27.4268 23.504 27.7581 23.8115 27.9851 24.2101C28.2148 24.6061 28.3296 25.072 28.3296 25.6078C28.3296 26.1463 28.2135 26.6096 27.9812 26.9976C27.7489 27.383 27.4123 27.6786 26.9715 27.8845C26.5333 28.0904 26.0027 28.1934 25.3798 28.1934L23.2377 28.1934V26.8155H25.1026C25.4299 26.8155 25.7018 26.7706 25.9183 26.6808C26.1347 26.5911 26.2957 26.4565 26.4013 26.277C26.5095 26.0975 26.5637 25.8744 26.5637 25.6078C26.5637 25.3386 26.5095 25.1116 26.4013 24.9268C26.2957 24.742 26.1334 24.6021 25.9143 24.5071C25.6978 24.4094 25.4246 24.3606 25.0947 24.3606H23.9385V31.068H22.224ZM26.6033 27.3777L28.6187 31.068H26.726L24.7542 27.3777L26.6033 27.3777ZM32.4158 31.068H29.5412L29.5412 22.9589L32.4396 22.9589C33.2552 22.9589 33.9574 23.1212 34.546 23.4459C35.1347 23.768 35.5874 24.2312 35.9042 24.8357C36.2236 25.4402 36.3833 26.1635 36.3833 27.0055C36.3833 27.8502 36.2236 28.5761 35.9042 29.1833C35.5874 29.7904 35.1321 30.2563 34.5381 30.581C33.9468 30.9057 33.2394 31.068 32.4158 31.068ZM31.2557 29.599H32.3446C32.8514 29.599 33.2777 29.5093 33.6235 29.3298C33.9719 29.1476 34.2332 28.8665 34.4075 28.4864C34.5843 28.1036 34.6728 27.61 34.6728 27.0055C34.6728 26.4063 34.5843 25.9167 34.4075 25.5365C34.2332 25.1564 33.9732 24.8766 33.6274 24.6971C33.2816 24.5176 32.8553 24.4279 32.3485 24.4279H31.2557V29.599ZM41.6316 31.068H39.7944L42.5938 22.9589H44.8032L47.5986 31.068H45.7614L43.7301 24.812H43.6668L41.6316 31.068ZM41.5168 27.8806H45.8564V29.2189H41.5168V27.8806ZM50.2297 27.5519L50.2297 31.068H48.5429L48.5429 24.9862H50.1505V26.0592H50.2218C50.3564 25.7055 50.5821 25.4257 50.8989 25.2198C51.2156 25.0113 51.5997 24.907 52.0511 24.907C52.4734 24.907 52.8417 24.9994 53.1558 25.1842C53.4699 25.3689 53.7141 25.6329 53.8883 25.9761C54.0625 26.3166 54.1496 26.7231 54.1496 27.1956L54.1496 31.068H52.4629L52.4629 27.4965C52.4655 27.1243 52.3705 26.8339 52.1778 26.6254C51.9851 26.4142 51.7198 26.3087 51.3819 26.3087C51.1549 26.3087 50.9543 26.3575 50.7801 26.4552C50.6085 26.5528 50.4739 26.6954 50.3762 26.8828C50.2812 27.0676 50.2323 27.2906 50.2297 27.5519ZM57.2133 31.1828C56.8253 31.1828 56.4795 31.1155 56.1759 30.9809C55.8723 30.8436 55.6321 30.6417 55.4553 30.3751C55.2811 30.1058 55.1939 29.7706 55.1939 29.3694C55.1939 29.0315 55.256 28.7477 55.38 28.5181C55.5041 28.2884 55.673 28.1036 55.8869 27.9637C56.1007 27.8238 56.3435 27.7182 56.6154 27.647C56.8899 27.5757 57.1777 27.5255 57.4786 27.4965C57.8323 27.4596 58.1174 27.4252 58.3338 27.3936C58.5503 27.3592 58.7074 27.3091 58.805 27.2431C58.9027 27.1771 58.9515 27.0794 58.9515 26.9501V26.9263C58.9515 26.6756 58.8723 26.4816 58.714 26.3443C58.5582 26.207 58.3365 26.1384 58.0488 26.1384C57.7452 26.1384 57.5037 26.2057 57.3242 26.3403C57.1447 26.4723 57.0259 26.6386 56.9678 26.8392L55.4078 26.7125C55.4869 26.343 55.6427 26.0236 55.875 25.7543C56.1073 25.4824 56.4069 25.2739 56.7738 25.1287C57.1433 24.9809 57.571 24.907 58.0567 24.907C58.3946 24.907 58.7179 24.9466 59.0268 25.0258C59.3382 25.105 59.6141 25.2277 59.8543 25.394C60.0971 25.5603 60.2885 25.7741 60.4284 26.0354C60.5683 26.2941 60.6383 26.6043 60.6383 26.9659L60.6383 31.068H59.0386V30.2246H58.9911C58.8934 30.4147 58.7628 30.5823 58.5991 30.7275C58.4355 30.87 58.2388 30.9822 58.0092 31.064C57.7795 31.1432 57.5142 31.1828 57.2133 31.1828ZM57.6964 30.0187C57.9445 30.0187 58.1636 29.9699 58.3536 29.8722C58.5437 29.7719 58.6928 29.6373 58.8011 29.4683C58.9093 29.2994 58.9634 29.108 58.9634 28.8942V28.2488C58.9106 28.2831 58.838 28.3148 58.7456 28.3438C58.6559 28.3702 58.5543 28.3953 58.4407 28.4191C58.3272 28.4402 58.2137 28.46 58.1002 28.4785C57.9867 28.4943 57.8838 28.5088 57.7914 28.522C57.5934 28.5511 57.4205 28.5973 57.2727 28.6606C57.1249 28.724 57.01 28.8097 56.9282 28.918C56.8464 29.0236 56.8055 29.1555 56.8055 29.3139C56.8055 29.5436 56.8886 29.7191 57.0549 29.8405C57.2239 29.9593 57.4377 30.0187 57.6964 30.0187ZM63.6336 22.9589L63.6336 31.068H61.9469L61.9469 22.9589H63.6336ZM66.0262 33.3487C65.8124 33.3487 65.6118 33.3315 65.4243 33.2972C65.2396 33.2655 65.0865 33.2246 64.965 33.1745L65.3452 31.9153C65.5431 31.976 65.7213 32.009 65.8797 32.0143C66.0407 32.0196 66.1793 31.9826 66.2954 31.9035C66.4142 31.8243 66.5106 31.6896 66.5845 31.4996L66.6835 31.2422L64.5018 24.9862H66.2756L67.5348 29.4525H67.5981L68.8691 24.9862H70.6549L68.291 31.7253C68.1775 32.0526 68.0231 32.3377 67.8278 32.5805C67.6351 32.826 67.3909 33.0148 67.0953 33.1467C66.7996 33.2814 66.4433 33.3487 66.0262 33.3487ZM76.5783 26.7204L75.0341 26.8155C75.0077 26.6835 74.9509 26.5647 74.8638 26.4591C74.7767 26.3509 74.6619 26.2651 74.5194 26.2017C74.3794 26.1358 74.2118 26.1028 74.0165 26.1028C73.7552 26.1028 73.5348 26.1582 73.3553 26.2691C73.1758 26.3773 73.086 26.5225 73.086 26.7046C73.086 26.8498 73.1441 26.9725 73.2602 27.0728C73.3764 27.1731 73.5757 27.2537 73.8581 27.3144L74.9589 27.5361C75.5501 27.6575 75.991 27.8529 76.2813 28.1221C76.5717 28.3914 76.7169 28.7451 76.7169 29.1833C76.7169 29.5819 76.5994 29.9316 76.3645 30.2325C76.1322 30.5335 75.8128 30.7684 75.4063 30.9373C75.0024 31.1036 74.5365 31.1868 74.0086 31.1868C73.2035 31.1868 72.562 31.0192 72.0842 30.6839C71.6091 30.346 71.3306 29.8867 71.2488 29.306L72.9078 29.2189C72.958 29.4644 73.0794 29.6518 73.2721 29.7812C73.4648 29.9079 73.7116 29.9712 74.0125 29.9712C74.3082 29.9712 74.5457 29.9145 74.7252 29.8009C74.9074 29.6848 74.9998 29.5357 75.0024 29.3535C74.9998 29.2004 74.9351 29.075 74.8084 28.9774C74.6817 28.8771 74.4864 28.8005 74.2224 28.7477L73.1692 28.5379C72.5752 28.4191 72.1331 28.2132 71.8427 27.9202C71.555 27.6272 71.4111 27.2537 71.4111 26.7996C71.4111 26.409 71.5167 26.0724 71.7279 25.79C71.9417 25.5075 72.2413 25.2897 72.6267 25.1366C73.0147 24.9835 73.4688 24.907 73.9888 24.907C74.7569 24.907 75.3614 25.0693 75.8022 25.394C76.2457 25.7187 76.5044 26.1608 76.5783 26.7204ZM77.779 31.068L77.779 24.9862H79.4658V31.068H77.779ZM78.6264 24.2022C78.3756 24.2022 78.1605 24.119 77.981 23.9527C77.8041 23.7838 77.7157 23.5819 77.7157 23.3469C77.7157 23.1146 77.8041 22.9153 77.981 22.749C78.1605 22.5801 78.3756 22.4956 78.6264 22.4956C78.8771 22.4956 79.0909 22.5801 79.2678 22.749C79.4473 22.9153 79.5371 23.1146 79.5371 23.3469C79.5371 23.5819 79.4473 23.7838 79.2678 23.9527C79.0909 24.119 78.8771 24.2022 78.6264 24.2022ZM85.8772 26.7204L84.333 26.8155C84.3066 26.6835 84.2499 26.5647 84.1628 26.4591C84.0756 26.3509 83.9608 26.2651 83.8183 26.2017C83.6784 26.1358 83.5108 26.1028 83.3154 26.1028C83.0541 26.1028 82.8337 26.1582 82.6542 26.2691C82.4747 26.3773 82.3849 26.5225 82.3849 26.7046C82.3849 26.8498 82.443 26.9725 82.5592 27.0728C82.6753 27.1731 82.8746 27.2537 83.157 27.3144L84.2578 27.5361C84.8491 27.6575 85.2899 27.8529 85.5803 28.1221C85.8706 28.3914 86.0158 28.7451 86.0158 29.1833C86.0158 29.5819 85.8983 29.9316 85.6634 30.2325C85.4311 30.5335 85.1117 30.7684 84.7052 30.9373C84.3013 31.1036 83.8354 31.1868 83.3075 31.1868C82.5024 31.1868 81.861 31.0192 81.3832 30.6839C80.908 30.346 80.6295 29.8867 80.5477 29.306L82.2068 29.2189C82.2569 29.4644 82.3783 29.6518 82.571 29.7812C82.7637 29.9079 83.0105 29.9712 83.3115 29.9712C83.6071 29.9712 83.8447 29.9145 84.0242 29.8009C84.2063 29.6848 84.2987 29.5357 84.3013 29.3535C84.2987 29.2004 84.234 29.075 84.1073 28.9774C83.9806 28.8771 83.7853 28.8005 83.5213 28.7477L82.4681 28.5379C81.8742 28.4191 81.432 28.2132 81.1416 27.9202C80.8539 27.6272 80.7101 27.2537 80.7101 26.7996C80.7101 26.409 80.8156 26.0724 81.0268 25.79C81.2406 25.5075 81.5402 25.2897 81.9256 25.1366C82.3137 24.9835 82.7677 24.907 83.2877 24.907C84.0558 24.907 84.6603 25.0693 85.1012 25.394C85.5446 25.7187 85.8033 26.1608 85.8772 26.7204Z" fill="#171A1F"/>
<rect x="14.3" y="101.068" width="46" height="10" rx="3" fill="#F3F4F6"/>
<rect x="14.3" y="143.068" width="46" height="10" rx="3" fill="#F3F4F6"/>
<rect x="14.3" y="189.068" width="46" height="10" rx="3" fill="#F3F4F6"/>
<rect x="14.3" y="62.068" width="46" height="10" rx="3" fill="#F3F4F6"/>
<rect x="74.3" y="194.068" width="46" height="10" rx="3" fill="#F3F4F6"/>
<rect x="143.3" y="194.068" width="46" height="10" rx="3" fill="#F3F4F6"/>
<rect x="212.3" y="194.068" width="46" height="10" rx="3" fill="#F3F4F6"/>
<rect x="282.3" y="194.068" width="46" height="10" rx="3" fill="#F3F4F6"/>
<rect x="122.3" y="212.068" width="16" height="16" rx="8" fill="#6D31ED"/>
<rect x="143.3" y="217.068" width="46" height="10" rx="3" fill="#F3F4F6"/>
<rect x="233.3" y="217.068" width="46" height="10" rx="3" fill="#F3F4F6"/>
<rect x="212.3" y="212.068" width="16" height="16" rx="8" fill="#D3C1FA"/>
</svg>
