<svg width="56" height="55" viewBox="0 0 56 55" fill="none" xmlns="http://www.w3.org/2000/svg">
<path d="M36.4586 31.3631V23.6047C36.4583 23.2645 36.3685 22.9305 36.1983 22.636C36.0281 22.3415 35.7834 22.097 35.4888 21.9269L28.7002 18.0477C28.4054 17.8775 28.0709 17.7878 27.7304 17.7878C27.3899 17.7878 27.0555 17.8775 26.7606 18.0477L19.972 21.9269C19.6774 22.097 19.4328 22.3415 19.2626 22.636C19.0923 22.9305 19.0025 23.2645 19.0022 23.6047V31.3631C19.0025 31.7032 19.0923 32.0373 19.2626 32.3317C19.4328 32.6262 19.6774 32.8708 19.972 33.0408L26.7606 36.92C27.0555 37.0903 27.3899 37.1799 27.7304 37.1799C28.0709 37.1799 28.4054 37.0903 28.7002 36.92L35.4888 33.0408C35.7834 32.8708 36.0281 32.6262 36.1983 32.3317C36.3685 32.0373 36.4583 31.7032 36.4586 31.3631Z" stroke="#172523" stroke-width="1.9396" stroke-linecap="round" stroke-linejoin="round"/>
<path d="M19.2632 22.5963L27.7296 27.4938L36.1959 22.5963" stroke="#172523" stroke-width="1.9396" stroke-linecap="round" stroke-linejoin="round"/>
<path d="M27.7305 37.2594V27.4838" stroke="#172523" stroke-width="1.9396" stroke-linecap="round" stroke-linejoin="round"/>
</svg>
