<svg width="165" height="78" viewBox="0 0 165 78" fill="none" xmlns="http://www.w3.org/2000/svg">
<path d="M41.7195 65.2001C49.5545 68.5694 61.5468 71.7497 71.5101 73.0935C95.2712 76.2533 119.06 73.9235 133.96 66.9368C134.04 66.8826 134.629 68.206 135.219 69.8775C136.687 74.0269 137.783 76.3798 138.76 77.2769C139.957 78.3972 141.856 77.4821 143.682 74.9395C148.461 68.2063 150.341 65.7436 156.415 58.2019C163.976 48.7202 165.37 46.331 164.585 44.3023C163.866 42.5087 161.912 41.8551 155.084 41.0857C147.255 40.2495 139.156 38.6657 130.112 36.3023C121.813 34.1096 121.278 34.0068 120.079 34.8199C118.805 35.5907 119.095 37.0932 121.336 41.9754C124.019 47.6519 124.595 49.6127 123.938 50.7802C123.344 51.8347 118.039 53.3612 109.095 55.1207C96.1403 57.5983 78.8524 58.0331 67.0641 56.1579C61.2661 55.2248 51.6599 52.5447 44.4691 49.786C33.2254 45.5392 21.6685 38.3387 15.8885 32.1089C9.89309 25.5596 6.13535 16.3518 6.81048 9.88752C6.9703 8.63839 7.6357 6.92994 9.01381 4.48199C10.7997 1.22206 10.9155 0.840877 10.2777 0.481872C8.58973 -0.468429 3.01853 7.05843 1.59967 12.2112C-2.16764 26.0109 5.43917 41.1053 22.6831 54.0865C26.25 56.7889 37.7726 63.5237 41.7195 65.2001ZM21.517 49.3134C9.79863 39.5918 3.02526 27.8432 3.54054 18.0652C3.75089 13.9183 4.16678 13.706 5.00674 17.3035C6.87261 25.3966 11.2387 32.1199 18.8748 38.6506C23.4789 42.5817 36.484 49.7544 44.2261 52.6746C51.6093 55.4424 61.8304 58.1712 67.462 58.961C77.4629 60.3258 90.9311 60.2701 102.041 58.7876C108.819 57.8918 122.402 54.8253 124.267 53.7927C127.583 51.9395 127.511 49.1713 123.961 41.9648C121.915 37.788 121.601 36.7676 122.188 36.6022C122.343 36.5903 125.392 37.3153 128.972 38.2395C137.861 40.6149 145.58 42.084 153.291 42.9533C157.013 43.3622 160.453 44.0091 161.337 44.4572L162.88 45.2266L161.974 47.0977C161.498 48.1191 158.497 52.1333 155.368 56.0254C152.238 59.9174 147.759 65.6788 145.38 68.8525C140.823 75.0162 140.414 75.4801 139.926 75.2056C139.776 75.1211 138.659 72.8059 137.502 70.1214C136.309 67.4159 135.041 65.0161 134.629 64.7838C134.179 64.5304 130.997 65.2685 126.412 66.6553C118.535 69.0649 114.167 69.9787 106.779 70.7295C83.8188 73.0793 61.7425 70.1736 42.4322 62.1791C41.677 61.8532 37.492 59.5468 33.2206 57.0429C27.3362 53.631 24.4625 51.7156 21.517 49.3134Z" fill="#064420"/>
</svg>
